{
  "accessors": [
    {
      "bufferView": 2,
      "componentType": 5126,
      "count": 5149,
      "max": [
        69.674507141113281,
        69.674507141113281,
        69.674507141113281
      ],
      "min": [
        -69.674507141113281,
        -69.674507141113281,
        -69.674507141113281
      ],
      "type": "VEC3"
    },
    {
      "bufferView": 2,
      "byteOffset": 61788,
      "componentType": 5126,
      "count": 5149,
      "max": [
        1,
        1,
        1
      ],
      "min": [
        -1,
        -1,
        -1
      ],
      "type": "VEC3"
    },
    {
      "bufferView": 3,
      "componentType": 5126,
      "count": 5149,
      "max": [
        1,
        1,
        0.015678595751523972,
        1
      ],
      "min": [
        -1,
        -1,
        -0.015678634867072105,
        1
      ],
      "type": "VEC4"
    },
    {
      "bufferView": 1,
      "componentType": 5126,
      "count": 5149,
      "max": [
        1.0000003576278687,
        1
      ],
      "min": [
        0,
        -3.5762786865234375e-07
      ],
      "type": "VEC2"
    },
    {
      "bufferView": 1,
      "byteOffset": 41192,
      "componentType": 5126,
      "count": 5149,
      "max": [
        1.0000003576278687,
        1
      ],
      "min": [
        0,
        -3.5762786865234375e-07
      ],
      "type": "VEC2"
    },
    {
      "bufferView": 0,
      "componentType": 5125,
      "count": 29400,
      "max": [
        5148
      ],
      "min": [
        0
      ],
      "type": "SCALAR"
    },
    {
      "bufferView": 2,
      "byteOffset": 123576,
      "componentType": 5126,
      "count": 5149,
      "max": [
        69.674507141113281,
        69.674507141113281,
        69.674507141113281
      ],
      "min": [
        -69.674507141113281,
        -69.674507141113281,
        -69.674507141113281
      ],
      "type": "VEC3"
    },
    {
      "bufferView": 2,
      "byteOffset": 185364,
      "componentType": 5126,
      "count": 5149,
      "max": [
        1,
        1,
        1
      ],
      "min": [
        -1,
        -1,
        -1
      ],
      "type": "VEC3"
    },
    {
      "bufferView": 3,
      "byteOffset": 82384,
      "componentType": 5126,
      "count": 5149,
      "max": [
        1,
        1,
        0.015678595751523972,
        1
      ],
      "min": [
        -1,
        -1,
        -0.015678634867072105,
        1
      ],
      "type": "VEC4"
    },
    {
      "bufferView": 1,
      "byteOffset": 82384,
      "componentType": 5126,
      "count": 5149,
      "max": [
        1.0000003576278687,
        1
      ],
      "min": [
        0,
        -3.5762786865234375e-07
      ],
      "type": "VEC2"
    },
    {
      "bufferView": 1,
      "byteOffset": 123576,
      "componentType": 5126,
      "count": 5149,
      "max": [
        1.0000003576278687,
        1
      ],
      "min": [
        0,
        -3.5762786865234375e-07
      ],
      "type": "VEC2"
    },
    {
      "bufferView": 0,
      "byteOffset": 117600,
      "componentType": 5125,
      "count": 29400,
      "max": [
        5148
      ],
      "min": [
        0
      ],
      "type": "SCALAR"
    },
    {
      "bufferView": 2,
      "byteOffset": 247152,
      "componentType": 5126,
      "count": 5149,
      "max": [
        68.826606750488281,
        68.826606750488281,
        68.826606750488281
      ],
      "min": [
        -68.826606750488281,
        -68.826606750488281,
        -68.826606750488281
      ],
      "type": "VEC3"
    },
    {
      "bufferView": 2,
      "byteOffset": 308940,
      "componentType": 5126,
      "count": 5149,
      "max": [
        1,
        1,
        1
      ],
      "min": [
        -1,
        -1,
        -1
      ],
      "type": "VEC3"
    },
    {
      "bufferView": 3,
      "byteOffset": 164768,
      "componentType": 5126,
      "count": 5149,
      "max": [
        1,
        1,
        0.015678742900490761,
        1
      ],
      "min": [
        -1,
        -1,
        -0.015678828582167625,
        1
      ],
      "type": "VEC4"
    },
    {
      "bufferView": 1,
      "byteOffset": 164768,
      "componentType": 5126,
      "count": 5149,
      "max": [
        1.0000003576278687,
        1
      ],
      "min": [
        0,
        -3.5762786865234375e-07
      ],
      "type": "VEC2"
    },
    {
      "bufferView": 1,
      "byteOffset": 205960,
      "componentType": 5126,
      "count": 5149,
      "max": [
        1.0000003576278687,
        1
      ],
      "min": [
        0,
        -3.5762786865234375e-07
      ],
      "type": "VEC2"
    },
    {
      "bufferView": 0,
      "byteOffset": 235200,
      "componentType": 5125,
      "count": 29400,
      "max": [
        5148
      ],
      "min": [
        0
      ],
      "type": "SCALAR"
    },
    {
      "bufferView": 4,
      "componentType": 5126,
      "count": 1001,
      "max": [
        33.333332061767578
      ],
      "min": [
        0
      ],
      "type": "SCALAR"
    },
    {
      "bufferView": 5,
      "componentType": 5126,
      "count": 1001,
      "max": [
        0.62339317798614502,
        0.70710527896881104,
        0.70710527896881104,
        0.70710676908493042
      ],
      "min": [
        -0.70710676908493042,
        -0.56767010688781738,
        -0.62386643886566162,
        -0.49897965788841248
      ],
      "type": "VEC4"
    },
    {
      "bufferView": 4,
      "byteOffset": 4004,
      "componentType": 5126,
      "count": 1001,
      "max": [
        33.333332061767578
      ],
      "min": [
        0
      ],
      "type": "SCALAR"
    },
    {
      "bufferView": 5,
      "byteOffset": 16016,
      "componentType": 5126,
      "count": 1001,
      "max": [
        0.62339317798614502,
        0.70710527896881104,
        0.70710527896881104,
        0.70710676908493042
      ],
      "min": [
        -0.70710676908493042,
        -0.56767010688781738,
        -0.62386643886566162,
        -0.49897965788841248
      ],
      "type": "VEC4"
    },
    {
      "bufferView": 4,
      "byteOffset": 8008,
      "componentType": 5126,
      "count": 1001,
      "max": [
        33.333332061767578
      ],
      "min": [
        0
      ],
      "type": "SCALAR"
    },
    {
      "bufferView": 5,
      "byteOffset": 32032,
      "componentType": 5126,
      "count": 1001,
      "max": [
        0.62339317798614502,
        0.70710527896881104,
        0.70710527896881104,
        0.70710676908493042
      ],
      "min": [
        -0.70710676908493042,
        -0.56767010688781738,
        -0.62386643886566162,
        -0.49897965788841248
      ],
      "type": "VEC4"
    }
  ],
  "animations": [
    {
      "channels": [
        {
          "sampler": 0,
          "target": {
            "node": 5,
            "path": "rotation"
          }
        },
        {
          "sampler": 1,
          "target": {
            "node": 7,
            "path": "rotation"
          }
        },
        {
          "sampler": 2,
          "target": {
            "node": 9,
            "path": "rotation"
          }
        }
      ],
      "name": "Take 001",
      "samplers": [
        {
          "input": 18,
          "interpolation": "LINEAR",
          "output": 19
        },
        {
          "input": 20,
          "interpolation": "LINEAR",
          "output": 21
        },
        {
          "input": 22,
          "interpolation": "LINEAR",
          "output": 23
        }
      ]
    }
  ],
  "asset": {
    "extras": {
      "author": "Nikom1999 (https://sketchfab.com/Nikom1999)",
      "license": "CC-BY-NC-4.0 (http://creativecommons.org/licenses/by-nc/4.0/)",
      "source": "https://sketchfab.com/3d-models/earth-30eac23fcab643a6a9bd304098c3bd34",
      "title": "Earth"
    },
    "generator": "Sketchfab-7.7.1",
    "version": "2.0"
  },
  "bufferViews": [
    {
      "buffer": 0,
      "byteLength": 352800,
      "byteOffset": 0,
      "name": "floatBufferViews",
      "target": 34963
    },
    {
      "buffer": 0,
      "byteLength": 247152,
      "byteOffset": 352800,
      "byteStride": 8,
      "name": "floatBufferViews",
      "target": 34962
    },
    {
      "buffer": 0,
      "byteLength": 370728,
      "byteOffset": 599952,
      "byteStride": 12,
      "name": "floatBufferViews",
      "target": 34962
    },
    {
      "buffer": 0,
      "byteLength": 247152,
      "byteOffset": 970680,
      "byteStride": 16,
      "name": "floatBufferViews",
      "target": 34962
    },
    {
      "buffer": 0,
      "byteLength": 12012,
      "byteOffset": 1217832,
      "name": "floatBufferViews"
    },
    {
      "buffer": 0,
      "byteLength": 48048,
      "byteOffset": 1229844,
      "byteStride": 16,
      "name": "floatBufferViews"
    }
  ],
  "buffers": [
    {
      "byteLength": 1277892,
      "uri": "scene.bin"
    }
  ],
  "images": [
    {
      "uri": "textures/02_-_Default_baseColor.jpeg"
    },
    {
      "uri": "textures/07_-_Default_baseColor.jpeg"
    }
  ],
  "materials": [
    {
      "alphaMode": "BLEND",
      "doubleSided": true,
      "name": "03_-_Default",
      "pbrMetallicRoughness": {
        "baseColorFactor": [
          0,
          0.065187917302499343,
          1,
          0.14195884146341464
        ],
        "metallicFactor": 0,
        "roughnessFactor": 0.89297135964975516
      }
    },
    {
      "alphaMode": "BLEND",
      "doubleSided": true,
      "emissiveFactor": [
        0,
        0,
        0
      ],
      "name": "02_-_Default",
      "pbrMetallicRoughness": {
        "baseColorFactor": [
          1,
          1,
          1,
          0.23951981707317074
        ],
        "baseColorTexture": {
          "index": 0,
          "texCoord": 0
        },
        "metallicFactor": 0,
        "roughnessFactor": 0.89297135964975516
      }
    },
    {
      "doubleSided": true,
      "emissiveFactor": [
        0,
        0,
        0
      ],
      "name": "07_-_Default",
      "pbrMetallicRoughness": {
        "baseColorFactor": [
          1,
          1,
          1,
          1
        ],
        "baseColorTexture": {
          "index": 1,
          "texCoord": 0
        },
        "metallicFactor": 0,
        "roughnessFactor": 0.89297135964975516
      }
    }
  ],
  "meshes": [
    {
      "name": "Sphere002_03 - Default_0",
      "primitives": [
        {
          "attributes": {
            "NORMAL": 1,
            "POSITION": 0,
            "TANGENT": 2,
            "TEXCOORD_0": 3,
            "TEXCOORD_1": 4
          },
          "indices": 5,
          "material": 0,
          "mode": 4
        }
      ]
    },
    {
      "name": "Sphere003_02 - Default_0",
      "primitives": [
        {
          "attributes": {
            "NORMAL": 7,
            "POSITION": 6,
            "TANGENT": 8,
            "TEXCOORD_0": 9,
            "TEXCOORD_1": 10
          },
          "indices": 11,
          "material": 1,
          "mode": 4
        }
      ]
    },
    {
      "name": "Sphere004_07 - Default_0",
      "primitives": [
        {
          "attributes": {
            "NORMAL": 13,
            "POSITION": 12,
            "TANGENT": 14,
            "TEXCOORD_0": 15,
            "TEXCOORD_1": 16
          },
          "indices": 17,
          "material": 2,
          "mode": 4
        }
      ]
    }
  ],
  "nodes": [
    {
      "children": [
        1
      ],
      "name": "RootNode (gltf orientation matrix)",
      "rotation": [
        -0.70710678118654746,
        -0,
        -0,
        0.70710678118654757
      ]
    },
    {
      "children": [
        2
      ],
      "matrix": [
        1,
        0,
        0,
        0,
        0,
        1,
        0,
        0,
        0,
        0,
        1,
        0,
        1.6004146345949266e-06,
        -2.3291891011467669e-06,
        2.5307565465482185e-07,
        1
      ],
      "name": "RootNode (model correction matrix)"
    },
    {
      "children": [
        3
      ],
      "matrix": [
        1,
        0,
        0,
        0,
        0,
        0,
        1,
        0,
        0,
        -1,
        0,
        0,
        0,
        0,
        0,
        1
      ],
      "name": "7f98eb3187ac4c4d8ddeb78c20840894.fbx"
    },
    {
      "children": [
        4
      ],
      "name": ""
    },
    {
      "children": [
        5,
        7,
        9
      ],
      "name": "RootNode"
    },
    {
      "children": [
        6
      ],
      "name": "Sphere002",
      "rotation": [
        -0.69938164949417114,
        0.10423709452152252,
        -0.10423709452152252,
        0.69938164949417114
      ],
      "scale": [
        1.0386999845504761,
        1.0386999845504761,
        1.0386999845504761
      ],
      "translation": [
        0,
        93.760330200195312,
        0
      ]
    },
    {
      "mesh": 0,
      "name": "Sphere002_03 - Default_0"
    },
    {
      "children": [
        8
      ],
      "name": "Sphere003",
      "rotation": [
        -0.69938164949417114,
        0.10423708707094193,
        -0.10423708707094193,
        0.69938164949417114
      ],
      "scale": [
        1.0287469625473022,
        1.0287469625473022,
        1.0287469625473022
      ],
      "translation": [
        0,
        93.760330200195312,
        0
      ]
    },
    {
      "mesh": 1,
      "name": "Sphere003_02 - Default_0"
    },
    {
      "children": [
        10
      ],
      "name": "Sphere004",
      "rotation": [
        -0.69938164949417114,
        0.10423709452152252,
        -0.10423709452152252,
        0.69938164949417114
      ],
      "scale": [
        1.0194439888000488,
        1.0194439888000488,
        1.0194439888000488
      ],
      "translation": [
        0,
        93.760238647460938,
        0
      ]
    },
    {
      "mesh": 2,
      "name": "Sphere004_07 - Default_0"
    }
  ],
  "samplers": [
    {
      "magFilter": 9729,
      "minFilter": 9987,
      "wrapS": 10497,
      "wrapT": 10497
    }
  ],
  "scene": 0,
  "scenes": [
    {
      "name": "OSG_Scene",
      "nodes": [
        0
      ]
    }
  ],
  "textures": [
    {
      "sampler": 0,
      "source": 0
    },
    {
      "sampler": 0,
      "source": 1
    }
  ]
}

