{
    "asset" : {
        "generator" : "Khronos glTF Blender I/O v1.2.75",
        "version" : "2.0"
    },
    "scene" : 0,
    "scenes" : [
        {
            "extras" : {
                "blenderkitUI" : {
                    "assetbar_on" : 0,
                    "turn_off" : 0
                },
                "uuid" : "939b84c1-12db-4dfd-9062-d3dd6de87cec",
                "glTF2ExportSettings" : {
                    "export_apply" : 1,
                    "export_cameras" : 0,
                    "export_colors" : 1,
                    "export_draco_mesh_compression_enable" : 0,
                    "export_extras" : 1,
                    "export_format" : "GLTF_SEPARATE",
                    "export_image_format" : "AUTO",
                    "export_lights" : 1,
                    "export_materials" : 1,
                    "export_normals" : 1,
                    "export_tangents" : 1
                }
            },
            "name" : "Scene",
            "nodes" : [
                0
            ]
        }
    ],
    "nodes" : [
        {
            "mesh" : 0,
            "name" : "Sphere"
        }
    ],
    "materials" : [
        {
            "doubleSided" : true,
            "emissiveFactor" : [
                25.31466293334961,
                2.117464303970337,
                0.7515165209770203
            ],
            "name" : "Material.001",
            "normalTexture" : {
                "index" : 0,
                "texCoord" : 0
            },
            "pbrMetallicRoughness" : {
                "baseColorTexture" : {
                    "index" : 1,
                    "texCoord" : 0
                },
                "metallicFactor" : 0,
                "roughnessFactor" : 1
            }
        }
    ],
    "meshes" : [
        {
            "name" : "Sphere",
            "primitives" : [
                {
                    "attributes" : {
                        "POSITION" : 0,
                        "NORMAL" : 1,
                        "TANGENT" : 2,
                        "TEXCOORD_0" : 3
                    },
                    "indices" : 4,
                    "material" : 0
                }
            ]
        }
    ],
    "textures" : [
        {
            "source" : 0
        },
        {
            "source" : 1
        }
    ],
    "images" : [
        {
            "mimeType" : "image/jpeg",
            "name" : "Earth_NormalNRM_6K.jpg",
            "uri" : "Earth_NormalNRM_6K_jpg.jpg"
        },
        {
            "mimeType" : "image/jpeg",
            "name" : "Earth_Diffuse_6K.jpg",
            "uri" : "Earth_Diffuse_6K_jpg.jpg"
        }
    ],
    "accessors" : [
        {
            "bufferView" : 0,
            "componentType" : 5126,
            "count" : 131140,
            "max" : [
                0.9872313737869263,
                0.9975767135620117,
                0.9872314929962158
            ],
            "min" : [
                -0.9872310161590576,
                -0.9975767135620117,
                -0.9872310161590576
            ],
            "type" : "VEC3"
        },
        {
            "bufferView" : 1,
            "componentType" : 5126,
            "count" : 131140,
            "type" : "VEC3"
        },
        {
            "bufferView" : 2,
            "componentType" : 5126,
            "count" : 131140,
            "type" : "VEC4"
        },
        {
            "bufferView" : 3,
            "componentType" : 5126,
            "count" : 131140,
            "type" : "VEC2"
        },
        {
            "bufferView" : 4,
            "componentType" : 5125,
            "count" : 761856,
            "type" : "SCALAR"
        }
    ],
    "bufferViews" : [
        {
            "buffer" : 0,
            "byteLength" : 1573680,
            "byteOffset" : 0
        },
        {
            "buffer" : 0,
            "byteLength" : 1573680,
            "byteOffset" : 1573680
        },
        {
            "buffer" : 0,
            "byteLength" : 2098240,
            "byteOffset" : 3147360
        },
        {
            "buffer" : 0,
            "byteLength" : 1049120,
            "byteOffset" : 5245600
        },
        {
            "buffer" : 0,
            "byteLength" : 3047424,
            "byteOffset" : 6294720
        }
    ],
    "buffers" : [
        {
            "byteLength" : 9342144,
            "uri" : "newearth.bin"
        }
    ]
}
