{
  "accessors": [
    {
      "bufferView": 2,
      "componentType": 5126,
      "count": 65532,
      "max": [
        0.31805455684661865,
        0.31829485297203064,
        0.25530686974525452
      ],
      "min": [
        -0.30939233303070068,
        -0.31829491257667542,
        -0.31805524230003357
      ],
      "type": "VEC3"
    },
    {
      "bufferView": 2,
      "byteOffset": 786384,
      "componentType": 5126,
      "count": 65532,
      "max": [
        0.97278290987014771,
        1,
        1
      ],
      "min": [
        -1,
        -1,
        -0.80278778076171875
      ],
      "type": "VEC3"
    },
    {
      "bufferView": 3,
      "componentType": 5126,
      "count": 65532,
      "max": [
        1,
        0.061479251831769943,
        1,
        1
      ],
      "min": [
        -1,
        -0.061533659696578979,
        -1,
        1
      ],
      "type": "VEC4"
    },
    {
      "bufferView": 1,
      "componentType": 5126,
      "count": 65532,
      "max": [
        1.0000001192092896,
        1.0000002384185791
      ],
      "min": [
        0,
        0
      ],
      "type": "VEC2"
    },
    {
      "bufferView": 1,
      "byteOffset": 524256,
      "componentType": 5126,
      "count": 65532,
      "max": [
        1.0000001192092896,
        1.0000002384185791
      ],
      "min": [
        0,
        0
      ],
      "type": "VEC2"
    },
    {
      "bufferView": 1,
      "byteOffset": 1048512,
      "componentType": 5126,
      "count": 65532,
      "max": [
        1.0000001192092896,
        1.0000002384185791
      ],
      "min": [
        0,
        0
      ],
      "type": "VEC2"
    },
    {
      "bufferView": 1,
      "byteOffset": 1572768,
      "componentType": 5126,
      "count": 65532,
      "max": [
        1.0000001192092896,
        1.0000002384185791
      ],
      "min": [
        0,
        0
      ],
      "type": "VEC2"
    },
    {
      "bufferView": 1,
      "byteOffset": 2097024,
      "componentType": 5126,
      "count": 65532,
      "max": [
        1.0000001192092896,
        1.0000002384185791
      ],
      "min": [
        0,
        0
      ],
      "type": "VEC2"
    },
    {
      "bufferView": 0,
      "componentType": 5125,
      "count": 373908,
      "max": [
        65531
      ],
      "min": [
        0
      ],
      "type": "SCALAR"
    },
    {
      "bufferView": 2,
      "byteOffset": 1572768,
      "componentType": 5126,
      "count": 65532,
      "max": [
        0.28671136498451233,
        0.31665009260177612,
        0.31805333495140076
      ],
      "min": [
        -0.31805425882339478,
        -0.31829491257667542,
        -0.31805524230003357
      ],
      "type": "VEC3"
    },
    {
      "bufferView": 2,
      "byteOffset": 2359152,
      "componentType": 5126,
      "count": 65532,
      "max": [
        1,
        1,
        1
      ],
      "min": [
        -0.90150368213653564,
        -0.99518483877182007,
        -1
      ],
      "type": "VEC3"
    },
    {
      "bufferView": 3,
      "byteOffset": 1048512,
      "componentType": 5126,
      "count": 65532,
      "max": [
        1,
        0.058689765632152557,
        1,
        1
      ],
      "min": [
        -1,
        -0.0612746961414814,
        -1,
        1
      ],
      "type": "VEC4"
    },
    {
      "bufferView": 1,
      "byteOffset": 2621280,
      "componentType": 5126,
      "count": 65532,
      "max": [
        1.0000002384185791,
        0.96875017881393433
      ],
      "min": [
        0.24609379470348358,
        0
      ],
      "type": "VEC2"
    },
    {
      "bufferView": 1,
      "byteOffset": 3145536,
      "componentType": 5126,
      "count": 65532,
      "max": [
        1.0000002384185791,
        0.96875017881393433
      ],
      "min": [
        0.24609379470348358,
        0
      ],
      "type": "VEC2"
    },
    {
      "bufferView": 1,
      "byteOffset": 3669792,
      "componentType": 5126,
      "count": 65532,
      "max": [
        1.0000002384185791,
        0.96875017881393433
      ],
      "min": [
        0.24609379470348358,
        0
      ],
      "type": "VEC2"
    },
    {
      "bufferView": 1,
      "byteOffset": 4194048,
      "componentType": 5126,
      "count": 65532,
      "max": [
        1.0000002384185791,
        0.96875017881393433
      ],
      "min": [
        0.24609379470348358,
        0
      ],
      "type": "VEC2"
    },
    {
      "bufferView": 1,
      "byteOffset": 4718304,
      "componentType": 5126,
      "count": 65532,
      "max": [
        1.0000002384185791,
        0.96875017881393433
      ],
      "min": [
        0.24609379470348358,
        0
      ],
      "type": "VEC2"
    },
    {
      "bufferView": 0,
      "byteOffset": 1495632,
      "componentType": 5125,
      "count": 381381,
      "max": [
        65531
      ],
      "min": [
        0
      ],
      "type": "SCALAR"
    },
    {
      "bufferView": 2,
      "byteOffset": 3145536,
      "componentType": 5126,
      "count": 7064,
      "max": [
        0.3162854015827179,
        0.31829485297203064,
        0.1951458603143692
      ],
      "min": [
        -0.31805425882339478,
        -0.31829491257667542,
        -0.23394541442394257
      ],
      "type": "VEC3"
    },
    {
      "bufferView": 2,
      "byteOffset": 3230304,
      "componentType": 5126,
      "count": 7064,
      "max": [
        1,
        1,
        0.73563170433044434
      ],
      "min": [
        -0.99444258213043213,
        -1,
        -0.61371701955795288
      ],
      "type": "VEC3"
    },
    {
      "bufferView": 3,
      "byteOffset": 2097024,
      "componentType": 5126,
      "count": 7064,
      "max": [
        0.99998223781585693,
        0.054401502013206482,
        1,
        1
      ],
      "min": [
        -1,
        -0.054410573095083237,
        -1,
        1
      ],
      "type": "VEC4"
    },
    {
      "bufferView": 1,
      "byteOffset": 5242560,
      "componentType": 5126,
      "count": 7064,
      "max": [
        1.0000002384185791,
        1.0000002384185791
      ],
      "min": [
        0.0013020834885537624,
        0
      ],
      "type": "VEC2"
    },
    {
      "bufferView": 1,
      "byteOffset": 5299072,
      "componentType": 5126,
      "count": 7064,
      "max": [
        1.0000002384185791,
        1.0000002384185791
      ],
      "min": [
        0.0013020834885537624,
        0
      ],
      "type": "VEC2"
    },
    {
      "bufferView": 1,
      "byteOffset": 5355584,
      "componentType": 5126,
      "count": 7064,
      "max": [
        1.0000002384185791,
        1.0000002384185791
      ],
      "min": [
        0.0013020834885537624,
        0
      ],
      "type": "VEC2"
    },
    {
      "bufferView": 1,
      "byteOffset": 5412096,
      "componentType": 5126,
      "count": 7064,
      "max": [
        1.0000002384185791,
        1.0000002384185791
      ],
      "min": [
        0.0013020834885537624,
        0
      ],
      "type": "VEC2"
    },
    {
      "bufferView": 1,
      "byteOffset": 5468608,
      "componentType": 5126,
      "count": 7064,
      "max": [
        1.0000002384185791,
        1.0000002384185791
      ],
      "min": [
        0.0013020834885537624,
        0
      ],
      "type": "VEC2"
    },
    {
      "bufferView": 0,
      "byteOffset": 3021156,
      "componentType": 5125,
      "count": 24999,
      "max": [
        7063
      ],
      "min": [
        0
      ],
      "type": "SCALAR"
    },
    {
      "bufferView": 2,
      "byteOffset": 3315072,
      "componentType": 5126,
      "count": 65532,
      "max": [
        0.30961182713508606,
        0.31684750318527222,
        0.30961814522743225
      ],
      "min": [
        -0.30859482288360596,
        -0.32042241096496582,
        -0.32018682360649109
      ],
      "type": "VEC3"
    },
    {
      "bufferView": 2,
      "byteOffset": 4101456,
      "componentType": 5126,
      "count": 65532,
      "max": [
        0.96380239725112915,
        1,
        1
      ],
      "min": [
        -0.96700066328048706,
        -0.98917347192764282,
        -0.96700066328048706
      ],
      "type": "VEC3"
    },
    {
      "bufferView": 1,
      "byteOffset": 5525120,
      "componentType": 5126,
      "count": 65532,
      "max": [
        1.0000002384185791,
        0.9531252384185791
      ],
      "min": [
        0,
        0
      ],
      "type": "VEC2"
    },
    {
      "bufferView": 0,
      "byteOffset": 3121152,
      "componentType": 5125,
      "count": 384300,
      "max": [
        65531
      ],
      "min": [
        0
      ],
      "type": "SCALAR"
    },
    {
      "bufferView": 2,
      "byteOffset": 4887840,
      "componentType": 5126,
      "count": 65532,
      "max": [
        0.32018563151359558,
        0.32041391730308533,
        0.32019191980361938
      ],
      "min": [
        -0.32019338011741638,
        -0.32042241096496582,
        -0.32018682360649109
      ],
      "type": "VEC3"
    },
    {
      "bufferView": 2,
      "byteOffset": 5674224,
      "componentType": 5126,
      "count": 65532,
      "max": [
        1,
        1,
        1
      ],
      "min": [
        -1,
        -1,
        -1
      ],
      "type": "VEC3"
    },
    {
      "bufferView": 1,
      "byteOffset": 6049376,
      "componentType": 5126,
      "count": 65532,
      "max": [
        1.0000002384185791,
        1.0000002384185791
      ],
      "min": [
        0,
        0
      ],
      "type": "VEC2"
    },
    {
      "bufferView": 0,
      "byteOffset": 4658352,
      "componentType": 5125,
      "count": 374160,
      "max": [
        65531
      ],
      "min": [
        0
      ],
      "type": "SCALAR"
    },
    {
      "bufferView": 2,
      "byteOffset": 6460608,
      "componentType": 5126,
      "count": 2650,
      "max": [
        0.00022700529370922595,
        0.32041391730308533,
        0.03206547349691391
      ],
      "min": [
        -0.032068949192762375,
        -0.32042241096496582,
        -0.03194442018866539
      ],
      "type": "VEC3"
    },
    {
      "bufferView": 2,
      "byteOffset": 6492408,
      "componentType": 5126,
      "count": 2650,
      "max": [
        0.10199520736932755,
        1,
        0.10175163298845291
      ],
      "min": [
        -0.037568613886833191,
        -1,
        -0.1017816960811615
      ],
      "type": "VEC3"
    },
    {
      "bufferView": 1,
      "byteOffset": 6573632,
      "componentType": 5126,
      "count": 2650,
      "max": [
        1.0000002384185791,
        1.0000002384185791
      ],
      "min": [
        0.49968358874320984,
        0
      ],
      "type": "VEC2"
    },
    {
      "bufferView": 0,
      "byteOffset": 6154992,
      "componentType": 5125,
      "count": 8580,
      "max": [
        2649
      ],
      "min": [
        0
      ],
      "type": "SCALAR"
    },
    {
      "bufferView": 2,
      "byteOffset": 6524208,
      "componentType": 5126,
      "count": 4,
      "max": [
        1,
        0,
        1
      ],
      "min": [
        -1,
        0,
        -1
      ],
      "type": "VEC3"
    },
    {
      "bufferView": 2,
      "byteOffset": 6524256,
      "componentType": 5126,
      "count": 4,
      "max": [
        0,
        1,
        -0
      ],
      "min": [
        0,
        1,
        -0
      ],
      "type": "VEC3"
    },
    {
      "bufferView": 1,
      "byteOffset": 6594832,
      "componentType": 5126,
      "count": 4,
      "max": [
        1,
        1
      ],
      "min": [
        0,
        0
      ],
      "type": "VEC2"
    },
    {
      "bufferView": 0,
      "byteOffset": 6189312,
      "componentType": 5125,
      "count": 6,
      "max": [
        3
      ],
      "min": [
        0
      ],
      "type": "SCALAR"
    }
  ],
  "asset": {
    "extras": {
      "author": "Mokitoby (https://sketchfab.com/mokitoby)",
      "license": "CC-BY-NC-4.0 (http://creativecommons.org/licenses/by-nc/4.0/)",
      "source": "https://sketchfab.com/3d-models/realistic-earth-free-9cdd0b621de34bdcb1c6c8e839ee7633",
      "title": "Realistic Earth (Free)"
    },
    "generator": "Sketchfab-10.18.0",
    "version": "2.0"
  },
  "bufferViews": [
    {
      "buffer": 0,
      "byteLength": 6189336,
      "byteOffset": 0,
      "name": "floatBufferViews",
      "target": 34963
    },
    {
      "buffer": 0,
      "byteLength": 6594864,
      "byteOffset": 6189336,
      "byteStride": 8,
      "name": "floatBufferViews",
      "target": 34962
    },
    {
      "buffer": 0,
      "byteLength": 6524304,
      "byteOffset": 12784200,
      "byteStride": 12,
      "name": "floatBufferViews",
      "target": 34962
    },
    {
      "buffer": 0,
      "byteLength": 2210048,
      "byteOffset": 19308504,
      "byteStride": 16,
      "name": "floatBufferViews",
      "target": 34962
    }
  ],
  "buffers": [
    {
      "byteLength": 21518552,
      "uri": "scene.bin"
    }
  ],
  "images": [
    {
      "uri": "textures/Earth_Diffuse_6K_baseColor.jpeg"
    },
    {
      "uri": "textures/Earth_Diffuse_6K_metallicRoughness.png"
    },
    {
      "uri": "textures/Earth_Diffuse_6K_emissive.jpeg"
    },
    {
      "uri": "textures/Earth_Diffuse_6K_normal.jpeg"
    },
    {
      "uri": "textures/Earth_Diffuse_6K.001_baseColor.png"
    }
  ],
  "materials": [
    {
      "doubleSided": true,
      "emissiveFactor": [
        1,
        1,
        1
      ],
      "emissiveTexture": {
        "index": 2,
        "texCoord": 2
      },
      "name": "Earth_Diffuse_6K",
      "normalTexture": {
        "index": 3,
        "scale": 0.5,
        "texCoord": 3
      },
      "pbrMetallicRoughness": {
        "baseColorFactor": [
          1,
          1,
          1,
          1
        ],
        "baseColorTexture": {
          "index": 0,
          "texCoord": 0
        },
        "metallicFactor": 0,
        "metallicRoughnessTexture": {
          "index": 1,
          "texCoord": 1
        },
        "roughnessFactor": 1
      }
    },
    {
      "alphaMode": "BLEND",
      "doubleSided": true,
      "emissiveFactor": [
        0,
        0,
        0
      ],
      "name": "Earth_Diffuse_6K.001",
      "pbrMetallicRoughness": {
        "baseColorFactor": [
          0.66444892350534146,
          0.66444892350534146,
          0.66444892350534146,
          0.3908411311554153
        ],
        "baseColorTexture": {
          "index": 4,
          "texCoord": 0
        },
        "metallicFactor": 0,
        "roughnessFactor": 0.80429290626197036
      }
    },
    {
      "alphaMode": "BLEND",
      "doubleSided": true,
      "emissiveFactor": [
        0,
        0,
        0
      ],
      "name": "Material.004",
      "pbrMetallicRoughness": {
        "baseColorFactor": [
          0,
          0,
          0,
          0
        ],
        "metallicFactor": 1,
        "roughnessFactor": 1
      }
    }
  ],
  "meshes": [
    {
      "primitives": [
        {
          "attributes": {
            "NORMAL": 1,
            "POSITION": 0,
            "TANGENT": 2,
            "TEXCOORD_0": 3,
            "TEXCOORD_1": 4,
            "TEXCOORD_2": 5,
            "TEXCOORD_3": 6,
            "TEXCOORD_4": 7
          },
          "indices": 8,
          "material": 0,
          "mode": 4
        }
      ]
    },
    {
      "primitives": [
        {
          "attributes": {
            "NORMAL": 10,
            "POSITION": 9,
            "TANGENT": 11,
            "TEXCOORD_0": 12,
            "TEXCOORD_1": 13,
            "TEXCOORD_2": 14,
            "TEXCOORD_3": 15,
            "TEXCOORD_4": 16
          },
          "indices": 17,
          "material": 0,
          "mode": 4
        }
      ]
    },
    {
      "primitives": [
        {
          "attributes": {
            "NORMAL": 19,
            "POSITION": 18,
            "TANGENT": 20,
            "TEXCOORD_0": 21,
            "TEXCOORD_1": 22,
            "TEXCOORD_2": 23,
            "TEXCOORD_3": 24,
            "TEXCOORD_4": 25
          },
          "indices": 26,
          "material": 0,
          "mode": 4
        }
      ]
    },
    {
      "primitives": [
        {
          "attributes": {
            "NORMAL": 28,
            "POSITION": 27,
            "TEXCOORD_0": 29
          },
          "indices": 30,
          "material": 1,
          "mode": 4
        }
      ]
    },
    {
      "primitives": [
        {
          "attributes": {
            "NORMAL": 32,
            "POSITION": 31,
            "TEXCOORD_0": 33
          },
          "indices": 34,
          "material": 1,
          "mode": 4
        }
      ]
    },
    {
      "primitives": [
        {
          "attributes": {
            "NORMAL": 36,
            "POSITION": 35,
            "TEXCOORD_0": 37
          },
          "indices": 38,
          "material": 1,
          "mode": 4
        }
      ]
    },
    {
      "primitives": [
        {
          "attributes": {
            "NORMAL": 40,
            "POSITION": 39,
            "TEXCOORD_0": 41
          },
          "indices": 42,
          "material": 2,
          "mode": 4
        }
      ]
    }
  ],
  "nodes": [
    {
      "children": [
        1
      ],
      "name": "RootNode (gltf orientation matrix)",
      "rotation": [
        -0.70710678118654746,
        -0,
        -0,
        0.70710678118654757
      ]
    },
    {
      "children": [
        2
      ],
      "matrix": [
        0.011856959201395512,
        0,
        0,
        0,
        0,
        0.011856959201395512,
        0,
        0,
        0,
        0,
        0.011856959201395512,
        0,
        0,
        0,
        -0.56397199630737305,
        1
      ],
      "name": "RootNode (model correction matrix)"
    },
    {
      "children": [
        3
      ],
      "name": "root"
    },
    {
      "children": [
        4,
        8,
        12
      ],
      "matrix": [
        1,
        0,
        0,
        0,
        0,
        2.2204460492503131e-16,
        1,
        0,
        0,
        -1,
        2.2204460492503131e-16,
        0,
        0,
        0,
        0,
        1
      ],
      "name": "GLTF_SceneRootNode"
    },
    {
      "children": [
        5,
        6,
        7
      ],
      "matrix": [
        368.89339070482168,
        171.32314196814994,
        -48.006655785835534,
        0,
        -176.97683140807393,
        341.94879113356575,
        -139.60235336959752,
        0,
        -18.315543080583925,
        146.48548374406573,
        382.0276634135401,
        0,
        -68.880050659179688,
        -48.903018951416016,
        -111.70840454101562,
        1
      ],
      "name": "Earth_Diffuse_6K_2"
    },
    {
      "mesh": 0,
      "name": ""
    },
    {
      "mesh": 1,
      "name": ""
    },
    {
      "mesh": 2,
      "name": ""
    },
    {
      "children": [
        9,
        10,
        11
      ],
      "matrix": [
        368.89339070482168,
        171.32314196814994,
        -48.006655785835534,
        0,
        -176.97683140807393,
        341.94879113356575,
        -139.60235336959752,
        0,
        -18.315543080583925,
        146.48548374406573,
        382.0276634135401,
        0,
        -68.880050659179688,
        -48.903018951416016,
        -111.70840454101562,
        1
      ],
      "name": "Earth_Diffuse_6K.001_3"
    },
    {
      "mesh": 3,
      "name": ""
    },
    {
      "mesh": 4,
      "name": ""
    },
    {
      "mesh": 5,
      "name": ""
    },
    {
      "children": [
        13
      ],
      "matrix": [
        646.39276123046875,
        0,
        0,
        0,
        0,
        646.39276123046875,
        0,
        0,
        0,
        0,
        646.39276123046875,
        0,
        -108.30457305908203,
        -181.20689392089844,
        -433.091552734375,
        1
      ],
      "name": "Plane_4"
    },
    {
      "mesh": 6,
      "name": ""
    }
  ],
  "samplers": [
    {
      "magFilter": 9729,
      "minFilter": 9987,
      "wrapS": 33071,
      "wrapT": 33071
    },
    {
      "magFilter": 9729,
      "minFilter": 9987,
      "wrapS": 10497,
      "wrapT": 10497
    }
  ],
  "scene": 0,
  "scenes": [
    {
      "name": "OSG_Scene",
      "nodes": [
        0
      ]
    }
  ],
  "textures": [
    {
      "sampler": 0,
      "source": 0
    },
    {
      "sampler": 0,
      "source": 1
    },
    {
      "sampler": 0,
      "source": 2
    },
    {
      "sampler": 0,
      "source": 3
    },
    {
      "sampler": 1,
      "source": 4
    }
  ]
}

